<svg width="77" height="24" viewBox="0 0 77 24" fill="none" xmlns="http://www.w3.org/2000/svg">
<path d="M7.62939e-06 0H3.81251V23.0312H7.62939e-06V0ZM13.4375 12.6562H5.09376V10.0938H13.4375V12.6562ZM5.09376 20.1875H14.4063V23.0312H5.09376V20.1875ZM14.4063 0V2.84375H5.09376V0H14.4063ZM15.3 5.40625H19.5813L23.3 17.9375V23.1562H21.4875L15.3 5.40625ZM28.3313 5.40625H32.5813L26.3938 23.1562H24.5813V17.9375L28.3313 5.40625ZM41.7875 5.25C42.9125 5.35417 43.9229 5.65625 44.8188 6.15625C45.7354 6.65625 46.5167 7.30208 47.1625 8.09375C47.8083 8.88542 48.2979 9.79167 48.6313 10.8125C48.9854 11.8333 49.1625 12.8958 49.1625 14C49.1625 14.5 49.1313 15 49.0688 15.5H38.35V12.75H45.5688C45.5688 12.2083 45.475 11.6875 45.2875 11.1875C45.1208 10.6875 44.8604 10.2292 44.5063 9.8125C44.1729 9.375 43.7771 9.01042 43.3188 8.71875C42.8604 8.42708 42.35 8.25 41.7875 8.1875V5.25ZM41.6625 20.0938C41.8917 20.0938 42.1729 20.0729 42.5063 20.0312C42.8604 19.9688 43.225 19.875 43.6 19.75C43.9958 19.6042 44.3813 19.4271 44.7563 19.2188C45.1521 19.0104 45.4958 18.7604 45.7875 18.4688L47.1625 20.5625C46.475 21.4167 45.6729 22.0625 44.7563 22.5C43.8396 22.9375 42.6729 23.1562 41.2563 23.1562C40.1104 23.1562 39.0375 22.9271 38.0375 22.4688C37.0375 21.9896 36.1833 21.3438 35.475 20.5312C34.7667 19.7188 34.2042 18.7708 33.7875 17.6875C33.3708 16.6042 33.1625 15.4375 33.1625 14.1875C33.1625 13 33.35 11.875 33.725 10.8125C34.1208 9.75 34.6521 8.82292 35.3188 8.03125C35.9854 7.21875 36.7563 6.5625 37.6313 6.0625C38.5271 5.5625 39.4854 5.28125 40.5063 5.21875V8.21875C39.7354 8.36458 39.1 8.67708 38.6 9.15625C38.1 9.63542 37.7042 10.1875 37.4125 10.8125C37.1417 11.4167 36.9438 12.0417 36.8188 12.6875C36.7146 13.3333 36.6625 13.8854 36.6625 14.3438C36.6625 15.1562 36.7563 15.9167 36.9438 16.625C37.1521 17.3125 37.4646 17.9167 37.8813 18.4375C38.2979 18.9375 38.8083 19.3438 39.4125 19.6562C40.0375 19.9479 40.7875 20.0938 41.6625 20.0938ZM54.525 5.40625L54.9313 7.1875V23.0312H51.15V5.40625H54.525ZM64.275 7.34375C64.6292 7.69792 64.9 8.11458 65.0875 8.59375C65.2958 9.05208 65.4417 9.54167 65.525 10.0625C65.6292 10.5625 65.6917 11.0729 65.7125 11.5938C65.7333 12.1146 65.7438 12.625 65.7438 13.125V22.4062V23.0312H61.9313V13.4375C61.9313 12.7292 61.9 12.0521 61.8375 11.4062C61.775 10.7604 61.6292 10.1875 61.4 9.6875C61.1708 9.1875 60.8583 8.80208 60.4625 8.53125C60.0667 8.23958 59.5146 8.09375 58.8063 8.09375C58.5146 8.09375 58.1188 8.14583 57.6188 8.25C57.1396 8.33333 56.6708 8.47917 56.2125 8.6875V6.28125C56.775 5.98958 57.3792 5.73958 58.025 5.53125C58.6917 5.32292 59.3375 5.21875 59.9625 5.21875C60.9 5.21875 61.6917 5.41667 62.3375 5.8125C62.9833 6.1875 63.6292 6.69792 64.275 7.34375ZM72.7938 17.6875C72.7938 18.3958 72.8875 18.9479 73.075 19.3438C73.2625 19.7396 73.5229 20.0417 73.8563 20.25C74.2104 20.4583 74.5958 20.5938 75.0125 20.6562C75.45 20.6979 75.9083 20.7188 76.3875 20.7188V23.0312C76.1167 23.0729 75.8458 23.1042 75.575 23.125C75.3458 23.1458 75.0646 23.1562 74.7313 23.1562C74.4188 23.1771 74.1063 23.1875 73.7938 23.1875C73.4813 23.1875 73.1583 23.1771 72.825 23.1562C72.5125 23.1354 72.2417 23.1042 72.0125 23.0625C71.3042 22.9375 70.7521 22.6354 70.3563 22.1562C69.9604 21.6562 69.6583 21.1146 69.45 20.5312C69.2625 19.9271 69.1375 19.3438 69.075 18.7812C69.0333 18.2188 69.0125 17.7812 69.0125 17.4688V7.96875H66.7V5.40625H69.0125V0.40625H72.7938V5.40625H75.6063V7.96875H72.7938V17.6875Z" fill="#102734"/>
</svg>
