<svg width="124" height="48" viewBox="0 0 124 48" fill="none" xmlns="http://www.w3.org/2000/svg">
<path d="M20.5127 11.0769V13.5384L34.4614 20.5127L20.5127 27.4871V47.9999L36.9229 39.7948V19.282L20.5127 11.0769Z" fill="#E8364E"/>
<path d="M0 28.7179L16.4102 36.923V34.4615L2.46146 27.4872L16.4102 20.5128V0L0 8.20509V28.7179Z" fill="#F6AA00"/>
<path d="M45.4156 12.9688H49.2281V36H45.4156V12.9688ZM58.8531 25.625H50.5094V23.0625H58.8531V25.625ZM50.5094 33.1562H59.8219V36H50.5094V33.1562ZM59.8219 12.9688V15.8125H50.5094V12.9688H59.8219ZM60.7156 18.375H64.9969L68.7156 30.9062V36.125H66.9031L60.7156 18.375ZM73.7469 18.375H77.9969L71.8094 36.125H69.9969V30.9062L73.7469 18.375ZM87.2031 18.2188C88.3281 18.3229 89.3385 18.625 90.2344 19.125C91.151 19.625 91.9323 20.2708 92.5781 21.0625C93.224 21.8542 93.7135 22.7604 94.0469 23.7812C94.401 24.8021 94.5781 25.8646 94.5781 26.9688C94.5781 27.4688 94.5469 27.9688 94.4844 28.4688H83.7656V25.7188H90.9844C90.9844 25.1771 90.8906 24.6562 90.7031 24.1562C90.5365 23.6562 90.276 23.1979 89.9219 22.7812C89.5885 22.3438 89.1927 21.9792 88.7344 21.6875C88.276 21.3958 87.7656 21.2188 87.2031 21.1562V18.2188ZM87.0781 33.0625C87.3073 33.0625 87.5885 33.0417 87.9219 33C88.276 32.9375 88.6406 32.8438 89.0156 32.7188C89.4115 32.5729 89.7969 32.3958 90.1719 32.1875C90.5677 31.9792 90.9115 31.7292 91.2031 31.4375L92.5781 33.5312C91.8906 34.3854 91.0885 35.0312 90.1719 35.4688C89.2552 35.9062 88.0885 36.125 86.6719 36.125C85.526 36.125 84.4531 35.8958 83.4531 35.4375C82.4531 34.9583 81.599 34.3125 80.8906 33.5C80.1823 32.6875 79.6198 31.7396 79.2031 30.6562C78.7865 29.5729 78.5781 28.4062 78.5781 27.1562C78.5781 25.9688 78.7656 24.8438 79.1406 23.7812C79.5365 22.7188 80.0677 21.7917 80.7344 21C81.401 20.1875 82.1719 19.5312 83.0469 19.0312C83.9427 18.5312 84.901 18.25 85.9219 18.1875V21.1875C85.151 21.3333 84.5156 21.6458 84.0156 22.125C83.5156 22.6042 83.1198 23.1562 82.8281 23.7812C82.5573 24.3854 82.3594 25.0104 82.2344 25.6562C82.1302 26.3021 82.0781 26.8542 82.0781 27.3125C82.0781 28.125 82.1719 28.8854 82.3594 29.5938C82.5677 30.2812 82.8802 30.8854 83.2969 31.4062C83.7135 31.9062 84.224 32.3125 84.8281 32.625C85.4531 32.9167 86.2031 33.0625 87.0781 33.0625ZM99.9406 18.375L100.347 20.1562V36H96.5656V18.375H99.9406ZM109.691 20.3125C110.045 20.6667 110.316 21.0833 110.503 21.5625C110.711 22.0208 110.857 22.5104 110.941 23.0312C111.045 23.5312 111.107 24.0417 111.128 24.5625C111.149 25.0833 111.159 25.5938 111.159 26.0938V35.375V36H107.347V26.4062C107.347 25.6979 107.316 25.0208 107.253 24.375C107.191 23.7292 107.045 23.1562 106.816 22.6562C106.586 22.1562 106.274 21.7708 105.878 21.5C105.482 21.2083 104.93 21.0625 104.222 21.0625C103.93 21.0625 103.534 21.1146 103.034 21.2188C102.555 21.3021 102.086 21.4479 101.628 21.6562V19.25C102.191 18.9583 102.795 18.7083 103.441 18.5C104.107 18.2917 104.753 18.1875 105.378 18.1875C106.316 18.1875 107.107 18.3854 107.753 18.7812C108.399 19.1562 109.045 19.6667 109.691 20.3125ZM118.209 30.6562C118.209 31.3646 118.303 31.9167 118.491 32.3125C118.678 32.7083 118.939 33.0104 119.272 33.2188C119.626 33.4271 120.011 33.5625 120.428 33.625C120.866 33.6667 121.324 33.6875 121.803 33.6875V36C121.532 36.0417 121.261 36.0729 120.991 36.0938C120.761 36.1146 120.48 36.125 120.147 36.125C119.834 36.1458 119.522 36.1562 119.209 36.1562C118.897 36.1562 118.574 36.1458 118.241 36.125C117.928 36.1042 117.657 36.0729 117.428 36.0312C116.72 35.9062 116.168 35.6042 115.772 35.125C115.376 34.625 115.074 34.0833 114.866 33.5C114.678 32.8958 114.553 32.3125 114.491 31.75C114.449 31.1875 114.428 30.75 114.428 30.4375V20.9375H112.116V18.375H114.428V13.375H118.209V18.375H121.022V20.9375H118.209V30.6562Z" fill="#102734"/>
</svg>
