<svg width="119" height="41" viewBox="0 0 119 41" fill="none" xmlns="http://www.w3.org/2000/svg">
<path d="M40.4156 9.96875H44.2281V33H40.4156V9.96875ZM53.8531 22.625H45.5094V20.0625H53.8531V22.625ZM45.5094 30.1562H54.8219V33H45.5094V30.1562ZM54.8219 9.96875V12.8125H45.5094V9.96875H54.8219ZM55.7156 15.375H59.9969L63.7156 27.9062V33.125H61.9031L55.7156 15.375ZM68.7469 15.375H72.9969L66.8094 33.125H64.9969V27.9062L68.7469 15.375ZM82.2031 15.2188C83.3281 15.3229 84.3385 15.625 85.2344 16.125C86.151 16.625 86.9323 17.2708 87.5781 18.0625C88.224 18.8542 88.7135 19.7604 89.0469 20.7812C89.401 21.8021 89.5781 22.8646 89.5781 23.9688C89.5781 24.4688 89.5469 24.9688 89.4844 25.4688H78.7656V22.7188H85.9844C85.9844 22.1771 85.8906 21.6562 85.7031 21.1562C85.5365 20.6562 85.276 20.1979 84.9219 19.7812C84.5885 19.3438 84.1927 18.9792 83.7344 18.6875C83.276 18.3958 82.7656 18.2188 82.2031 18.1562V15.2188ZM82.0781 30.0625C82.3073 30.0625 82.5885 30.0417 82.9219 30C83.276 29.9375 83.6406 29.8438 84.0156 29.7188C84.4115 29.5729 84.7969 29.3958 85.1719 29.1875C85.5677 28.9792 85.9115 28.7292 86.2031 28.4375L87.5781 30.5312C86.8906 31.3854 86.0885 32.0312 85.1719 32.4688C84.2552 32.9062 83.0885 33.125 81.6719 33.125C80.526 33.125 79.4531 32.8958 78.4531 32.4375C77.4531 31.9583 76.599 31.3125 75.8906 30.5C75.1823 29.6875 74.6198 28.7396 74.2031 27.6562C73.7865 26.5729 73.5781 25.4062 73.5781 24.1562C73.5781 22.9688 73.7656 21.8438 74.1406 20.7812C74.5365 19.7188 75.0677 18.7917 75.7344 18C76.401 17.1875 77.1719 16.5312 78.0469 16.0312C78.9427 15.5312 79.901 15.25 80.9219 15.1875V18.1875C80.151 18.3333 79.5156 18.6458 79.0156 19.125C78.5156 19.6042 78.1198 20.1562 77.8281 20.7812C77.5573 21.3854 77.3594 22.0104 77.2344 22.6562C77.1302 23.3021 77.0781 23.8542 77.0781 24.3125C77.0781 25.125 77.1719 25.8854 77.3594 26.5938C77.5677 27.2812 77.8802 27.8854 78.2969 28.4062C78.7135 28.9062 79.224 29.3125 79.8281 29.625C80.4531 29.9167 81.2031 30.0625 82.0781 30.0625ZM94.9406 15.375L95.3469 17.1562V33H91.5656V15.375H94.9406ZM104.691 17.3125C105.045 17.6667 105.316 18.0833 105.503 18.5625C105.711 19.0208 105.857 19.5104 105.941 20.0312C106.045 20.5312 106.107 21.0417 106.128 21.5625C106.149 22.0833 106.159 22.5938 106.159 23.0938V32.375V33H102.347V23.4062C102.347 22.6979 102.316 22.0208 102.253 21.375C102.191 20.7292 102.045 20.1562 101.816 19.6562C101.586 19.1562 101.274 18.7708 100.878 18.5C100.482 18.2083 99.9302 18.0625 99.2219 18.0625C98.9302 18.0625 98.5344 18.1146 98.0344 18.2188C97.5552 18.3021 97.0865 18.4479 96.6281 18.6562V16.25C97.1906 15.9583 97.7948 15.7083 98.4406 15.5C99.1073 15.2917 99.7531 15.1875 100.378 15.1875C101.316 15.1875 102.107 15.3854 102.753 15.7812C103.399 16.1562 104.045 16.6667 104.691 17.3125ZM113.209 27.6562C113.209 28.3646 113.303 28.9167 113.491 29.3125C113.678 29.7083 113.939 30.0104 114.272 30.2188C114.626 30.4271 115.011 30.5625 115.428 30.625C115.866 30.6667 116.324 30.6875 116.803 30.6875V33C116.532 33.0417 116.261 33.0729 115.991 33.0938C115.761 33.1146 115.48 33.125 115.147 33.125C114.834 33.1458 114.522 33.1562 114.209 33.1562C113.897 33.1562 113.574 33.1458 113.241 33.125C112.928 33.1042 112.657 33.0729 112.428 33.0312C111.72 32.9062 111.168 32.6042 110.772 32.125C110.376 31.625 110.074 31.0833 109.866 30.5C109.678 29.8958 109.553 29.3125 109.491 28.75C109.449 28.1875 109.428 27.75 109.428 27.4375V17.9375H107.116V15.375H109.428V10.375H113.209V15.375H116.022V17.9375H113.209V27.6562Z" fill="#102734"/>
<path d="M0.279661 36L0 11.4286L5.87288 18.8571L6.99153 29.7143H11.7458L15.9407 36H0.279661Z" fill="#0671FD"/>
<path d="M32.4407 4V18.8571L26.2881 10.5714L6.99153 10.2857L6.4322 12.2857L3.07627 7.42857L1.11864 4.28571L32.4407 4Z" fill="#0772FC"/>
<path d="M32.4407 26L33 36H20.9746L17.0593 29.1429L26.2881 28.8571V16.8571L32.4407 26Z" fill="#0ABDF8"/>
<path d="M21.2542 15.7143H8.66949L12.0254 22.2857H22.3729L21.2542 15.7143Z" fill="#0ABDF8"/>
</svg>
