<svg width="77" height="24" viewBox="0 0 77 24" fill="none" xmlns="http://www.w3.org/2000/svg">
<path d="M0.415527 0.46875H4.22803V23.5H0.415527V0.46875ZM13.853 13.125H5.50933V10.5625H13.853V13.125ZM5.50933 20.6562H14.8218V23.5H5.50933V20.6562ZM14.8218 0.46875V3.31245H5.50933V0.46875H14.8218ZM15.7155 5.87495H19.9968L23.7155 18.4062V23.625H21.903L15.7155 5.87495ZM28.7468 5.87495H32.9968L26.8093 23.625H24.9968V18.4062L28.7468 5.87495ZM42.203 5.71875C43.328 5.82285 44.3384 6.12495 45.2343 6.62495C46.1509 7.12495 46.9322 7.77075 47.578 8.56245C48.2239 9.35415 48.7134 10.2604 49.0468 11.2812C49.4009 12.3021 49.578 13.3645 49.578 14.4688C49.578 14.9688 49.5468 15.4688 49.4843 15.9688H38.7655V13.2188H45.9843C45.9843 12.677 45.8905 12.1562 45.703 11.6562C45.5364 11.1562 45.2759 10.6979 44.9218 10.2812C44.5884 9.84375 44.1926 9.47915 43.7343 9.18745C43.2759 8.89575 42.7655 8.71875 42.203 8.65615V5.71875ZM42.078 20.5625C42.3072 20.5625 42.5884 20.5417 42.9218 20.5C43.2759 20.4375 43.6405 20.3438 44.0155 20.2188C44.4114 20.0729 44.7968 19.8958 45.1718 19.6875C45.5676 19.4792 45.9114 19.2292 46.203 18.9375L47.578 21.0312C46.8905 21.8854 46.0884 22.5312 45.1718 22.9688C44.2551 23.4062 43.0884 23.625 41.6718 23.625C40.5259 23.625 39.453 23.3958 38.453 22.9375C37.453 22.4583 36.5989 21.8125 35.8905 21C35.1822 20.1875 34.6197 19.2396 34.203 18.1562C33.7864 17.0729 33.578 15.9062 33.578 14.6562C33.578 13.4688 33.7655 12.3438 34.1405 11.2812C34.5364 10.2188 35.0676 9.29165 35.7343 8.49995C36.4009 7.68745 37.1718 7.03115 38.0468 6.53115C38.9426 6.03115 39.9009 5.74995 40.9218 5.68745V8.68745C40.1509 8.83325 39.5155 9.14575 39.0155 9.62495C38.5155 10.1042 38.1197 10.6562 37.828 11.2812C37.5572 11.8854 37.3593 12.5104 37.2343 13.1562C37.1301 13.8021 37.078 14.3542 37.078 14.8125C37.078 15.625 37.1718 16.3853 37.3593 17.0938C37.5676 17.7811 37.8801 18.3854 38.2968 18.9062C38.7134 19.4062 39.2239 19.8125 39.828 20.125C40.453 20.4167 41.203 20.5625 42.078 20.5625ZM54.9405 5.87495L55.3469 7.65615V23.5H51.5655V5.87495H54.9405ZM64.6909 7.81245C65.0449 8.16665 65.3159 8.58325 65.5029 9.06245C65.7109 9.52075 65.8569 10.0104 65.9409 10.5312C66.0449 11.0312 66.1069 11.5417 66.1279 12.0625C66.1489 12.5833 66.1589 13.0938 66.1589 13.5938V22.875V23.5H62.3469V13.9062C62.3469 13.1979 62.3159 12.5208 62.2529 11.875C62.1909 11.2292 62.0449 10.6562 61.8159 10.1562C61.5859 9.65615 61.2739 9.27075 60.8779 8.99995C60.4819 8.70825 59.9299 8.56245 59.2219 8.56245C58.9299 8.56245 58.5339 8.61455 58.0339 8.71875C57.5549 8.80205 57.0859 8.94785 56.6279 9.15615V6.74995C57.1909 6.45825 57.7949 6.20825 58.4409 5.99995C59.1069 5.79165 59.7529 5.68745 60.3779 5.68745C61.3159 5.68745 62.1069 5.88535 62.7529 6.28115C63.3989 6.65615 64.0449 7.16665 64.6909 7.81245ZM73.2089 18.1562C73.2089 18.8646 73.3029 19.4167 73.4909 19.8125C73.6779 20.2083 73.9389 20.5104 74.2719 20.7188C74.6259 20.927 75.0109 21.0625 75.4279 21.125C75.8659 21.1667 76.3239 21.1875 76.8029 21.1875V23.5C76.5319 23.5417 76.2609 23.5729 75.9909 23.5938C75.7609 23.6146 75.4799 23.625 75.1469 23.625C74.8339 23.6458 74.5219 23.6562 74.2089 23.6562C73.8969 23.6562 73.5739 23.6458 73.2409 23.625C72.9279 23.6042 72.6569 23.5729 72.4279 23.5312C71.7199 23.4062 71.1679 23.1042 70.7719 22.625C70.3759 22.125 70.0739 21.5833 69.8659 21C69.6779 20.3958 69.5529 19.8125 69.4909 19.25C69.4489 18.6875 69.4279 18.25 69.4279 17.9375V8.43745H67.1159V5.87495H69.4279V0.87495H73.2089V5.87495H76.0219V8.43745H73.2089V18.1562Z" fill="#102734"/>
</svg>
